<svg xmlns="http://www.w3.org/2000/svg" viewBox="552.458 433.444 814.763 213.112" role="img" aria-label="Admetta">
  <path d="M 1176.046 534.787 L 1228.946 534.787 L 1228.946 550.987 L 1176.046 550.987 Z" fill="#ff2e93"/>
  <path d="M 1268.455 550.987 L 1257.955 550.987 L 1257.955 534.787 L 1268.455 534.787 Z" fill="#ff2e93"/>
  <path d="M 1211.265 562.027 C 1207.535 562.027 1205.565 560.017 1205.365 555.987 L 1186.335 555.987 L 1186.335 556.257 C 1186.335 564.237 1188.255 570.017 1192.105 573.577 C 1195.956 577.147 1201.495 578.937 1208.726 578.937 L 1219.156 578.937 L 1219.156 562.027 Z M 1205.345 505.687 L 1205.345 488.917 L 1186.335 490.897 L 1186.335 505.687 L 1176.045 505.687 L 1176.045 521.887 L 1186.335 521.887 L 1186.335 529.787 L 1205.345 529.787 L 1205.345 521.887 L 1220.845 521.887 L 1220.845 505.687 Z" fill="#ffffff"/>
  <path d="M 1252.955 555.263 C 1252.955 555.513 1252.965 555.753 1252.975 555.983 C 1253.175 560.013 1255.155 562.023 1258.875 562.023 L 1266.765 562.023 L 1266.765 578.933 L 1256.335 578.933 C 1249.105 578.933 1243.565 577.143 1239.715 573.573 C 1235.865 570.013 1233.945 564.233 1233.945 556.253 L 1233.945 521.883 L 1223.655 521.883 L 1223.655 505.683 L 1233.945 505.683 L 1233.945 490.893 L 1252.955 488.913 L 1252.955 505.683 L 1268.455 505.683 L 1268.455 521.883 L 1252.955 521.883 Z" fill="#ffffff"/>
  <path d="M 587.392 480.757 L 649.287 542.652 L 630.332 561.607 L 568.437 499.712 Z" fill="#ff2e93"/>
  <path d="M 695.516 588.881 L 676.561 607.836 L 664.276 595.550 L 683.231 576.596 Z" fill="#ff2e93"/>
  <path d="M 596.729 553.838 C 592.365 549.474 592.412 544.817 596.893 539.868 L 574.627 517.602 L 574.311 517.918 C 564.974 527.255 560.458 536.264 560.797 544.934 C 561.125 553.616 565.512 562.192 573.972 570.652 L 586.175 582.855 L 605.961 563.070 Z M 655.723 480.991 L 675.344 461.370 L 650.785 441.444 L 633.480 458.749 L 621.440 446.709 L 602.486 465.664 L 614.525 477.703 L 605.282 486.947 L 627.525 509.189 L 636.768 499.946 L 654.904 518.082 L 673.858 499.127 Z" fill="#ffffff"/>
  <path d="M 653.421 594.703 C 653.128 594.996 652.859 595.288 652.602 595.569 C 648.121 600.518 648.085 605.187 652.438 609.539 L 661.670 618.771 L 641.884 638.556 L 629.681 626.353 C 621.221 617.893 616.834 609.317 616.506 600.635 C 616.167 591.965 620.683 582.956 630.020 573.619 L 670.234 533.404 L 658.195 521.365 L 677.149 502.410 L 689.189 514.450 L 706.494 497.145 L 731.053 517.071 L 711.432 536.692 L 729.567 554.828 L 710.613 573.783 L 692.477 555.647 Z" fill="#ffffff"/>
  <path d="M 803.541 557.961 C 807.767 557.961 811.405 556.999 814.458 555.073 C 817.508 553.149 819.881 550.590 821.571 547.396 C 823.262 544.205 824.106 540.730 824.106 536.972 C 824.106 533.123 823.262 529.601 821.571 526.408 C 819.881 523.216 817.508 520.632 814.458 518.660 C 811.405 516.688 807.767 515.702 803.541 515.702 C 799.502 515.702 795.956 516.666 792.905 518.590 C 789.853 520.516 787.482 523.075 785.792 526.267 C 784.102 529.461 783.257 532.982 783.257 536.832 C 783.257 540.494 784.102 543.945 785.792 547.185 C 787.482 550.425 789.853 553.031 792.905 555.003 C 795.956 556.975 799.502 557.961 803.541 557.961 M 800.441 575.146 C 793.772 575.146 787.693 573.432 782.200 570.005 C 776.706 566.578 772.340 561.976 769.100 556.200 C 765.860 550.425 764.240 544.016 764.240 536.972 C 764.240 531.714 765.178 526.760 767.058 522.111 C 768.935 517.463 771.517 513.378 774.805 509.857 C 778.091 506.335 781.918 503.566 786.285 501.545 C 790.652 499.527 795.371 498.517 800.441 498.517 C 806.827 498.517 811.804 499.714 815.373 502.109 C 818.941 504.503 821.712 507.673 823.685 511.617 L 823.685 500.066 L 842.560 500.066 L 842.560 573.315 L 824.106 573.315 L 824.106 561.342 C 822.135 565.475 819.340 568.807 815.726 571.343 C 812.109 573.878 807.014 575.146 800.441 575.146" fill="#ffffff"/>
  <path d="M 898.319 557.961 C 902.545 557.961 906.183 556.999 909.236 555.073 C 912.286 553.149 914.659 550.590 916.349 547.396 C 918.040 544.205 918.884 540.730 918.884 536.972 C 918.884 533.123 918.040 529.601 916.349 526.408 C 914.659 523.216 912.286 520.632 909.236 518.660 C 906.183 516.688 902.545 515.702 898.319 515.702 C 894.280 515.702 890.734 516.666 887.683 518.590 C 884.631 520.516 882.260 523.075 880.570 526.267 C 878.880 529.461 878.035 532.982 878.035 536.832 C 878.035 540.494 878.880 543.945 880.570 547.185 C 882.260 550.425 884.631 553.031 887.683 555.003 C 890.734 556.975 894.280 557.961 898.319 557.961 M 895.219 575.146 C 888.550 575.146 882.471 573.432 876.978 570.005 C 871.484 566.578 867.118 561.976 863.878 556.200 C 860.638 550.425 859.018 544.016 859.018 536.972 C 859.018 531.714 859.956 526.760 861.836 522.111 C 863.713 517.463 866.295 513.378 869.583 509.857 C 872.869 506.335 876.696 503.566 881.063 501.545 C 885.430 499.527 890.149 498.517 895.219 498.517 C 901.510 498.517 906.440 499.692 910.010 502.039 C 913.578 504.387 916.349 507.486 918.321 511.336 L 918.321 470.485 L 937.338 470.485 L 937.338 573.315 L 918.884 573.315 L 918.884 561.342 C 916.913 565.475 914.118 568.807 910.504 571.343 C 906.887 573.878 901.792 575.146 895.219 575.146" fill="#ffffff"/>
  <path d="M 954.612 573.315 L 954.612 500.066 L 973.346 500.066 L 973.346 510.772 C 977.196 502.509 984.662 498.376 995.744 498.376 C 1000.907 498.376 1005.555 499.573 1009.689 501.968 C 1013.820 504.363 1017.106 507.768 1019.550 512.181 C 1021.990 507.768 1025.114 504.363 1028.917 501.968 C 1032.720 499.573 1037.862 498.376 1044.341 498.376 C 1049.599 498.376 1054.342 499.598 1058.568 502.039 C 1062.795 504.482 1066.127 507.955 1068.570 512.462 C 1071.010 516.970 1072.232 522.323 1072.232 528.521 L 1072.232 573.315 L 1053.216 573.315 L 1053.216 533.169 C 1053.216 526.784 1051.853 522.160 1049.131 519.294 C 1046.406 516.431 1042.884 514.998 1038.566 514.998 C 1034.151 514.998 1030.558 516.266 1027.790 518.801 C 1025.019 521.336 1023.634 526.126 1023.634 533.169 L 1023.634 573.315 L 1004.618 573.315 L 1004.618 533.169 C 1004.618 526.784 1003.161 522.160 1000.252 519.294 C 997.340 516.431 993.536 514.998 988.841 514.998 C 984.802 514.998 981.257 516.431 978.207 519.294 C 975.153 522.160 973.629 526.784 973.629 533.169 L 973.629 573.315 Z" fill="#ffffff"/>
  <path d="M 1124.739 514.576 C 1120.231 514.576 1116.380 515.938 1113.188 518.661 C 1109.995 521.386 1107.882 524.953 1106.849 529.367 L 1143.051 529.367 C 1142.016 525.330 1139.882 521.855 1136.641 518.943 C 1133.402 516.033 1129.433 514.576 1124.739 514.576 M 1125.020 575.147 C 1117.507 575.147 1110.885 573.408 1105.159 569.935 C 1099.429 566.462 1094.993 561.835 1091.847 556.060 C 1088.700 550.284 1087.129 543.875 1087.129 536.832 C 1087.129 529.789 1088.770 523.334 1092.058 517.464 C 1095.344 511.596 1099.828 506.923 1105.511 503.448 C 1111.192 499.975 1117.696 498.236 1125.020 498.236 C 1132.345 498.236 1138.801 499.975 1144.389 503.448 C 1149.975 506.923 1154.343 511.596 1157.489 517.464 C 1160.635 523.334 1162.209 529.789 1162.209 536.832 C 1162.209 537.867 1162.160 538.945 1162.067 540.072 C 1161.972 541.199 1161.832 542.374 1161.645 543.594 L 1106.849 543.594 C 1107.882 547.914 1109.970 551.436 1113.118 554.159 C 1116.262 556.883 1120.231 558.243 1125.020 558.243 C 1129.152 558.243 1132.744 557.306 1135.797 555.426 C 1138.847 553.549 1141.219 551.201 1142.910 548.383 L 1157.701 559.511 C 1154.789 564.114 1150.423 567.870 1144.600 570.780 C 1138.777 573.690 1132.251 575.147 1125.020 575.147" fill="#ffffff"/>
  <path d="M 1320.202 557.195 C 1324.428 557.195 1328.066 556.233 1331.119 554.307 C 1334.169 552.383 1336.542 549.824 1338.232 546.630 C 1339.923 543.439 1340.767 539.964 1340.767 536.206 C 1340.767 532.357 1339.923 528.835 1338.232 525.642 C 1336.542 522.450 1334.169 519.866 1331.119 517.894 C 1328.066 515.922 1324.428 514.936 1320.202 514.936 C 1316.163 514.936 1312.617 515.900 1309.566 517.824 C 1306.514 519.750 1304.143 522.309 1302.453 525.501 C 1300.763 528.695 1299.918 532.216 1299.918 536.066 C 1299.918 539.728 1300.763 543.179 1302.453 546.419 C 1304.143 549.659 1306.514 552.265 1309.566 554.237 C 1312.617 556.209 1316.163 557.195 1320.202 557.195 M 1317.102 574.380 C 1310.433 574.380 1304.354 572.666 1298.861 569.239 C 1293.367 565.812 1289.001 561.210 1285.761 555.434 C 1282.521 549.659 1280.901 543.250 1280.901 536.206 C 1280.901 530.948 1281.839 525.994 1283.719 521.345 C 1285.596 516.697 1288.178 512.612 1291.466 509.091 C 1294.752 505.569 1298.579 502.800 1302.946 500.779 C 1307.313 498.761 1312.032 497.751 1317.102 497.751 C 1323.488 497.751 1328.465 498.948 1332.034 501.343 C 1335.602 503.737 1338.373 506.907 1340.346 510.851 L 1340.346 499.300 L 1359.221 499.300 L 1359.221 572.549 L 1340.767 572.549 L 1340.767 560.576 C 1338.796 564.709 1336.001 568.041 1332.387 570.577 C 1328.770 573.113 1323.675 574.380 1317.102 574.380" fill="#ffffff"/>
</svg>
